<svg width="16" height="16" viewBox="0 0 16 16" fill="none" xmlns="http://www.w3.org/2000/svg">
<path d="M6.4 0.32C6.92928 0.32 7.36 0.75072 7.36 1.28V6.4C7.36 6.92928 6.92928 7.36 6.4 7.36H1.28C0.75072 7.36 0.32 6.92928 0.32 6.4V1.28C0.32 0.75072 0.75072 0.32 1.28 0.32H6.4ZM6.4 0H1.28C0.57312 0 0 0.57312 0 1.28V6.4C0 7.10688 0.57312 7.68 1.28 7.68H6.4C7.10688 7.68 7.68 7.10688 7.68 6.4V1.28C7.68 0.57312 7.10688 0 6.4 0Z" fill="black"/>
<path d="M6.4 8.64001C6.92928 8.64001 7.36 9.07073 7.36 9.60001V14.72C7.36 15.2493 6.92928 15.68 6.4 15.68H1.28C0.75072 15.68 0.32 15.2493 0.32 14.72V9.60001C0.32 9.07073 0.75072 8.64001 1.28 8.64001H6.4ZM6.4 8.32001H1.28C0.57312 8.32001 0 8.89313 0 9.60001V14.72C0 15.4269 0.57312 16 1.28 16H6.4C7.10688 16 7.68 15.4269 7.68 14.72V9.60001C7.68 8.89313 7.10688 8.32001 6.4 8.32001Z" fill="black"/>
<path d="M14.72 8.64001C15.2493 8.64001 15.68 9.07073 15.68 9.60001V14.72C15.68 15.2493 15.2493 15.68 14.72 15.68H9.6C9.07072 15.68 8.64 15.2493 8.64 14.72V9.60001C8.64 9.07073 9.07072 8.64001 9.6 8.64001H14.72ZM14.72 8.32001H9.6C8.89312 8.32001 8.32 8.89313 8.32 9.60001V14.72C8.32 15.4269 8.89312 16 9.6 16H14.72C15.4269 16 16 15.4269 16 14.72V9.60001C16 8.89313 15.4269 8.32001 14.72 8.32001Z" fill="black"/>
</svg>
